<svg width="368" height="164" viewBox="0 0 368 164" fill="none" xmlns="http://www.w3.org/2000/svg">
<path d="M1.6839 162.757C1.6839 141.781 17.5283 121.081 28.8265 104.897C35.7874 94.9264 50.7146 90.6121 61.945 88.366C70.7722 86.6006 78.7149 86.5612 86.6303 90.8234C91.9378 93.6812 97.8005 95.9058 103.162 98.9215C106.888 101.017 109.594 104.642 113.27 106.684C117.336 108.943 121.798 116.262 126.339 116.514C128.973 116.66 132.059 118.523 134.605 119.306C140.086 120.993 146.755 121.54 152.476 121.54C156.706 121.54 161.91 122.404 166.048 121.485C171.152 120.35 175.974 117.331 180.624 115.006C190.239 110.198 194.698 102.664 200.507 94.3977C207.471 84.4862 210.34 71.9158 215.586 61.2234C221.387 49.3979 227.394 40.5911 236.864 31.1207C251.154 16.8313 270.587 1.91164 291.987 1.91164C304.646 1.91164 317.306 1.91164 329.965 1.91164C336.779 1.91164 350.738 3.44368 355.544 9.45126C357.968 12.4821 363.091 18.8365 366.602 20.0067" stroke="white" stroke-width="2" stroke-linecap="round"/>
</svg>
